<svg width="135" height="64" viewBox="0 0 135 64" fill="none" xmlns="http://www.w3.org/2000/svg">
<rect x="0.5" width="134" height="64" rx="8" fill="#303031"/>
<path d="M30.3398 35.3281L33.3545 25.2031H36.29L31.834 38H29.9004L30.3398 35.3281ZM27.5625 25.2031L30.5684 35.3281L31.0254 38H29.0742L24.6445 25.2031H27.5625ZM39.999 28.4902V38H37.459V28.4902H39.999ZM37.3008 26.0117C37.3008 25.6426 37.4297 25.3379 37.6875 25.0977C37.9453 24.8574 38.291 24.7373 38.7246 24.7373C39.1523 24.7373 39.4951 24.8574 39.7529 25.0977C40.0166 25.3379 40.1484 25.6426 40.1484 26.0117C40.1484 26.3809 40.0166 26.6855 39.7529 26.9258C39.4951 27.166 39.1523 27.2861 38.7246 27.2861C38.291 27.2861 37.9453 27.166 37.6875 26.9258C37.4297 26.6855 37.3008 26.3809 37.3008 26.0117ZM46.4678 38.1758C45.7295 38.1758 45.0674 38.0586 44.4814 37.8242C43.8955 37.584 43.3975 37.2529 42.9873 36.8311C42.583 36.4092 42.2725 35.9199 42.0557 35.3633C41.8389 34.8008 41.7305 34.2031 41.7305 33.5703V33.2188C41.7305 32.498 41.833 31.8389 42.0381 31.2412C42.2432 30.6436 42.5361 30.125 42.917 29.6855C43.3037 29.2461 43.7725 28.9092 44.3232 28.6748C44.874 28.4346 45.4951 28.3145 46.1865 28.3145C46.8604 28.3145 47.458 28.4258 47.9795 28.6484C48.501 28.8711 48.9375 29.1875 49.2891 29.5977C49.6465 30.0078 49.916 30.5 50.0977 31.0742C50.2793 31.6426 50.3701 32.2754 50.3701 32.9727V34.0273H42.8115V32.3398H47.8828V32.1465C47.8828 31.7949 47.8184 31.4814 47.6895 31.2061C47.5664 30.9248 47.3789 30.7021 47.127 30.5381C46.875 30.374 46.5527 30.292 46.1602 30.292C45.8262 30.292 45.5391 30.3652 45.2988 30.5117C45.0586 30.6582 44.8623 30.8633 44.71 31.127C44.5635 31.3906 44.4521 31.7012 44.376 32.0586C44.3057 32.4102 44.2705 32.7969 44.2705 33.2188V33.5703C44.2705 33.9512 44.3232 34.3027 44.4287 34.625C44.54 34.9473 44.6953 35.2256 44.8945 35.46C45.0996 35.6943 45.3457 35.876 45.6328 36.0049C45.9258 36.1338 46.2568 36.1982 46.626 36.1982C47.083 36.1982 47.5078 36.1104 47.9004 35.9346C48.2988 35.7529 48.6416 35.4805 48.9287 35.1172L50.1592 36.4531C49.96 36.7402 49.6875 37.0156 49.3418 37.2793C49.002 37.543 48.5918 37.7598 48.1113 37.9297C47.6309 38.0938 47.083 38.1758 46.4678 38.1758ZM54.5273 35.5391L56.5049 28.4902H58.1133L57.5947 31.2588L55.6172 38H54.2725L54.5273 35.5391ZM53.5254 28.4902L54.9404 35.5303L55.0723 38H53.4902L51.082 28.4902H53.5254ZM59.9238 35.416L61.3037 28.4902H63.7559L61.3477 38H59.7744L59.9238 35.416ZM58.333 28.4902L60.3018 35.4863L60.5742 38H59.2207L57.2432 31.2676L56.7422 28.4902H58.333ZM72.0439 30.459V38H69.5039V28.4902H71.8857L72.0439 30.459ZM71.6924 32.9111H70.9893C70.9893 32.249 71.0684 31.6396 71.2266 31.083C71.3906 30.5205 71.6279 30.0342 71.9385 29.624C72.2549 29.208 72.6445 28.8857 73.1074 28.6572C73.5703 28.4287 74.1064 28.3145 74.7158 28.3145C75.1377 28.3145 75.5244 28.3789 75.876 28.5078C76.2275 28.6309 76.5293 28.8271 76.7812 29.0967C77.0391 29.3604 77.2383 29.7061 77.3789 30.1338C77.5195 30.5557 77.5898 31.0625 77.5898 31.6543V38H75.0586V31.9355C75.0586 31.502 75 31.168 74.8828 30.9336C74.7656 30.6992 74.5986 30.5352 74.3818 30.4414C74.1709 30.3477 73.916 30.3008 73.6172 30.3008C73.2891 30.3008 73.002 30.3682 72.7559 30.5029C72.5156 30.6377 72.3164 30.8252 72.1582 31.0654C72 31.2998 71.8828 31.5752 71.8066 31.8916C71.7305 32.208 71.6924 32.5479 71.6924 32.9111ZM77.3525 32.6211L76.4473 32.7354C76.4473 32.1143 76.5234 31.5371 76.6758 31.0039C76.834 30.4707 77.0654 30.002 77.3701 29.5977C77.6807 29.1934 78.0645 28.8799 78.5215 28.6572C78.9785 28.4287 79.5059 28.3145 80.1035 28.3145C80.5605 28.3145 80.9766 28.3818 81.3516 28.5166C81.7266 28.6455 82.0459 28.8535 82.3096 29.1406C82.5791 29.4219 82.7842 29.791 82.9248 30.248C83.0713 30.7051 83.1445 31.2646 83.1445 31.9268V38H80.6045V31.9268C80.6045 31.4873 80.5459 31.1533 80.4287 30.9248C80.3174 30.6904 80.1533 30.5293 79.9365 30.4414C79.7256 30.3477 79.4736 30.3008 79.1807 30.3008C78.876 30.3008 78.6094 30.3623 78.3809 30.4854C78.1523 30.6025 77.9619 30.7666 77.8096 30.9775C77.6572 31.1885 77.543 31.4346 77.4668 31.7158C77.3906 31.9912 77.3525 32.293 77.3525 32.6211ZM84.7002 33.3418V33.1572C84.7002 32.46 84.7998 31.8184 84.999 31.2324C85.1982 30.6406 85.4883 30.1279 85.8691 29.6943C86.25 29.2607 86.7188 28.9238 87.2754 28.6836C87.832 28.4375 88.4707 28.3145 89.1914 28.3145C89.9121 28.3145 90.5537 28.4375 91.1162 28.6836C91.6787 28.9238 92.1504 29.2607 92.5312 29.6943C92.918 30.1279 93.2109 30.6406 93.4102 31.2324C93.6094 31.8184 93.709 32.46 93.709 33.1572V33.3418C93.709 34.0332 93.6094 34.6748 93.4102 35.2666C93.2109 35.8525 92.918 36.3652 92.5312 36.8047C92.1504 37.2383 91.6816 37.5752 91.125 37.8154C90.5684 38.0557 89.9297 38.1758 89.209 38.1758C88.4883 38.1758 87.8467 38.0557 87.2842 37.8154C86.7275 37.5752 86.2559 37.2383 85.8691 36.8047C85.4883 36.3652 85.1982 35.8525 84.999 35.2666C84.7998 34.6748 84.7002 34.0332 84.7002 33.3418ZM87.2314 33.1572V33.3418C87.2314 33.7402 87.2666 34.1123 87.3369 34.458C87.4072 34.8037 87.5186 35.1084 87.6709 35.3721C87.8291 35.6299 88.0342 35.832 88.2861 35.9785C88.5381 36.125 88.8457 36.1982 89.209 36.1982C89.5605 36.1982 89.8623 36.125 90.1143 35.9785C90.3662 35.832 90.5684 35.6299 90.7207 35.3721C90.873 35.1084 90.9844 34.8037 91.0547 34.458C91.1309 34.1123 91.1689 33.7402 91.1689 33.3418V33.1572C91.1689 32.7705 91.1309 32.4072 91.0547 32.0674C90.9844 31.7217 90.8701 31.417 90.7119 31.1533C90.5596 30.8838 90.3574 30.6729 90.1055 30.5205C89.8535 30.3682 89.5488 30.292 89.1914 30.292C88.834 30.292 88.5293 30.3682 88.2773 30.5205C88.0312 30.6729 87.8291 30.8838 87.6709 31.1533C87.5186 31.417 87.4072 31.7217 87.3369 32.0674C87.2666 32.4072 87.2314 32.7705 87.2314 33.1572ZM97.7959 30.5645V38H95.2646V28.4902H97.6465L97.7959 30.5645ZM100.661 28.4287L100.617 30.7754C100.494 30.7578 100.345 30.7432 100.169 30.7314C99.999 30.7139 99.8438 30.7051 99.7031 30.7051C99.3457 30.7051 99.0352 30.752 98.7715 30.8457C98.5137 30.9336 98.2969 31.0654 98.1211 31.2412C97.9512 31.417 97.8223 31.6309 97.7344 31.8828C97.6523 32.1348 97.6055 32.4219 97.5938 32.7441L97.084 32.5859C97.084 31.9707 97.1455 31.4053 97.2686 30.8896C97.3916 30.3682 97.5703 29.9141 97.8047 29.5273C98.0449 29.1406 98.3379 28.8418 98.6836 28.6309C99.0293 28.4199 99.4248 28.3145 99.8701 28.3145C100.011 28.3145 100.154 28.3262 100.301 28.3496C100.447 28.3672 100.567 28.3936 100.661 28.4287ZM106.058 38.1758C105.319 38.1758 104.657 38.0586 104.071 37.8242C103.485 37.584 102.987 37.2529 102.577 36.8311C102.173 36.4092 101.862 35.9199 101.646 35.3633C101.429 34.8008 101.32 34.2031 101.32 33.5703V33.2188C101.32 32.498 101.423 31.8389 101.628 31.2412C101.833 30.6436 102.126 30.125 102.507 29.6855C102.894 29.2461 103.362 28.9092 103.913 28.6748C104.464 28.4346 105.085 28.3145 105.776 28.3145C106.45 28.3145 107.048 28.4258 107.569 28.6484C108.091 28.8711 108.527 29.1875 108.879 29.5977C109.236 30.0078 109.506 30.5 109.688 31.0742C109.869 31.6426 109.96 32.2754 109.96 32.9727V34.0273H102.401V32.3398H107.473V32.1465C107.473 31.7949 107.408 31.4814 107.279 31.2061C107.156 30.9248 106.969 30.7021 106.717 30.5381C106.465 30.374 106.143 30.292 105.75 30.292C105.416 30.292 105.129 30.3652 104.889 30.5117C104.648 30.6582 104.452 30.8633 104.3 31.127C104.153 31.3906 104.042 31.7012 103.966 32.0586C103.896 32.4102 103.86 32.7969 103.86 33.2188V33.5703C103.86 33.9512 103.913 34.3027 104.019 34.625C104.13 34.9473 104.285 35.2256 104.484 35.46C104.689 35.6943 104.936 35.876 105.223 36.0049C105.516 36.1338 105.847 36.1982 106.216 36.1982C106.673 36.1982 107.098 36.1104 107.49 35.9346C107.889 35.7529 108.231 35.4805 108.519 35.1172L109.749 36.4531C109.55 36.7402 109.277 37.0156 108.932 37.2793C108.592 37.543 108.182 37.7598 107.701 37.9297C107.221 38.0938 106.673 38.1758 106.058 38.1758Z" fill="white"/>
</svg>
